<svg width="80" height="24" viewBox="0 0 80 24" fill="none" xmlns="http://www.w3.org/2000/svg">
<path d="M9.18 1.76007H13.05L22.29 23.0001H17.01L15.18 18.5001H6.93L5.16 23.0001H0L9.18 1.76007ZM10.98 7.94007L8.4 14.5401H13.59L10.98 7.94007Z" fill="#01996D"/>
<path d="M23.9163 0.320068H28.4163V23.0001H23.9163V0.320068Z" fill="#01996D"/>
<path d="M31.7093 8.42007H36.2093V23.0001H31.7093V8.42007ZM31.3493 3.83007C31.3493 3.11007 31.5993 2.50007 32.0993 2.00007C32.6193 1.48007 33.2393 1.22007 33.9593 1.22007C34.6793 1.22007 35.2893 1.48007 35.7893 2.00007C36.3093 2.50007 36.5693 3.11007 36.5693 3.83007C36.5693 4.55007 36.3093 5.17007 35.7893 5.69007C35.2893 6.19007 34.6793 6.44007 33.9593 6.44007C33.2393 6.44007 32.6193 6.19007 32.0993 5.69007C31.5993 5.17007 31.3493 4.55007 31.3493 3.83007Z" fill="#01996D"/>
<path d="M37.9123 8.42007H42.7723L46.4623 18.3201H46.5223L49.9423 8.42007H54.4723L48.7123 23.0001H43.9423L37.9123 8.42007Z" fill="#01996D"/>
<path d="M56.1722 8.42007H60.6722V23.0001H56.1722V8.42007ZM55.8122 3.83007C55.8122 3.11007 56.0622 2.50007 56.5622 2.00007C57.0822 1.48007 57.7022 1.22007 58.4222 1.22007C59.1422 1.22007 59.7522 1.48007 60.2522 2.00007C60.7722 2.50007 61.0322 3.11007 61.0322 3.83007C61.0322 4.55007 60.7722 5.17007 60.2522 5.69007C59.7522 6.19007 59.1422 6.44007 58.4222 6.44007C57.7022 6.44007 57.0822 6.19007 56.5622 5.69007C56.0622 5.17007 55.8122 4.55007 55.8122 3.83007Z" fill="#01996D"/>
<path d="M63.3652 15.7101C63.3652 14.5501 63.5752 13.5001 63.9952 12.5601C64.4152 11.6201 64.9852 10.8201 65.7052 10.1601C66.4452 9.48007 67.3052 8.96007 68.2852 8.60007C69.2852 8.24007 70.3452 8.06007 71.4652 8.06007C72.5852 8.06007 73.6352 8.24007 74.6152 8.60007C75.6152 8.96007 76.4752 9.48007 77.1952 10.1601C77.9352 10.8201 78.5152 11.6201 78.9352 12.5601C79.3552 13.5001 79.5652 14.5501 79.5652 15.7101C79.5652 16.8701 79.3552 17.9201 78.9352 18.8601C78.5152 19.8001 77.9352 20.6101 77.1952 21.2901C76.4752 21.9501 75.6152 22.4601 74.6152 22.8201C73.6352 23.1801 72.5852 23.3601 71.4652 23.3601C70.3452 23.3601 69.2852 23.1801 68.2852 22.8201C67.3052 22.4601 66.4452 21.9501 65.7052 21.2901C64.9852 20.6101 64.4152 19.8001 63.9952 18.8601C63.5752 17.9201 63.3652 16.8701 63.3652 15.7101ZM67.8652 15.7101C67.8652 16.8101 68.1752 17.7001 68.7952 18.3801C69.4352 19.0601 70.3252 19.4001 71.4652 19.4001C72.6052 19.4001 73.4852 19.0601 74.1052 18.3801C74.7452 17.7001 75.0652 16.8101 75.0652 15.7101C75.0652 14.6101 74.7452 13.7201 74.1052 13.0401C73.4852 12.3601 72.6052 12.0201 71.4652 12.0201C70.3252 12.0201 69.4352 12.3601 68.7952 13.0401C68.1752 13.7201 67.8652 14.6101 67.8652 15.7101Z" fill="#01996D"/>
</svg>
